<mxfile host="app.diagrams.net" modified="2021-01-06T19:25:07.707Z" agent="5.0 (Windows)" etag="_ocURlK49IAGXTpc9zIu" version="14.1.8" type="github">
  <diagram id="bCGg5KQR6h7hhslifcUB" name="Page-1">
    <mxGraphModel dx="1422" dy="802" grid="1" gridSize="10" guides="1" tooltips="1" connect="1" arrows="1" fold="1" page="1" pageScale="1" pageWidth="850" pageHeight="1100" math="0" shadow="0">
      <root>
        <mxCell id="0" />
        <mxCell id="1" parent="0" />
        <mxCell id="vCfNFG107dNvgSjnfp0e-1" value="Start" style="rounded=1;whiteSpace=wrap;html=1;" vertex="1" parent="1">
          <mxGeometry x="365" y="20" width="120" height="60" as="geometry" />
        </mxCell>
        <mxCell id="vCfNFG107dNvgSjnfp0e-2" value="Generate a random word" style="rounded=1;whiteSpace=wrap;html=1;" vertex="1" parent="1">
          <mxGeometry x="365" y="140" width="120" height="60" as="geometry" />
        </mxCell>
        <mxCell id="vCfNFG107dNvgSjnfp0e-3" value="" style="endArrow=classic;html=1;exitX=0.5;exitY=1;exitDx=0;exitDy=0;entryX=0.5;entryY=0;entryDx=0;entryDy=0;" edge="1" parent="1" source="vCfNFG107dNvgSjnfp0e-1" target="vCfNFG107dNvgSjnfp0e-2">
          <mxGeometry width="50" height="50" relative="1" as="geometry">
            <mxPoint x="425" y="90" as="sourcePoint" />
            <mxPoint x="425" y="130" as="targetPoint" />
          </mxGeometry>
        </mxCell>
        <mxCell id="vCfNFG107dNvgSjnfp0e-5" value="Generate as many blanks as letters in the word" style="rounded=1;whiteSpace=wrap;html=1;" vertex="1" parent="1">
          <mxGeometry x="365" y="250" width="120" height="60" as="geometry" />
        </mxCell>
        <mxCell id="vCfNFG107dNvgSjnfp0e-6" value="" style="endArrow=classic;html=1;entryX=0.5;entryY=0;entryDx=0;entryDy=0;" edge="1" parent="1" target="vCfNFG107dNvgSjnfp0e-5">
          <mxGeometry width="50" height="50" relative="1" as="geometry">
            <mxPoint x="425" y="190" as="sourcePoint" />
            <mxPoint x="425" y="260" as="targetPoint" />
          </mxGeometry>
        </mxCell>
        <mxCell id="vCfNFG107dNvgSjnfp0e-10" style="edgeStyle=orthogonalEdgeStyle;rounded=0;orthogonalLoop=1;jettySize=auto;html=1;exitX=0.5;exitY=1;exitDx=0;exitDy=0;" edge="1" parent="1" source="vCfNFG107dNvgSjnfp0e-7" target="vCfNFG107dNvgSjnfp0e-9">
          <mxGeometry relative="1" as="geometry" />
        </mxCell>
        <mxCell id="vCfNFG107dNvgSjnfp0e-7" value="Ask the user to guess a letter" style="rounded=1;whiteSpace=wrap;html=1;" vertex="1" parent="1">
          <mxGeometry x="365" y="360" width="120" height="60" as="geometry" />
        </mxCell>
        <mxCell id="vCfNFG107dNvgSjnfp0e-8" value="" style="endArrow=classic;html=1;" edge="1" parent="1">
          <mxGeometry width="50" height="50" relative="1" as="geometry">
            <mxPoint x="424" y="310" as="sourcePoint" />
            <mxPoint x="424" y="360" as="targetPoint" />
          </mxGeometry>
        </mxCell>
        <mxCell id="vCfNFG107dNvgSjnfp0e-9" value="&lt;div&gt;&lt;font style=&quot;font-size: 12px&quot;&gt;&lt;br&gt;&lt;/font&gt;&lt;/div&gt;&lt;div&gt;&lt;font style=&quot;font-size: 12px&quot;&gt;Is the guessed letter in the word?&lt;/font&gt;&lt;/div&gt;" style="rhombus;whiteSpace=wrap;html=1;" vertex="1" parent="1">
          <mxGeometry x="340" y="470" width="170" height="100" as="geometry" />
        </mxCell>
        <mxCell id="vCfNFG107dNvgSjnfp0e-19" value="" style="edgeStyle=orthogonalEdgeStyle;rounded=0;orthogonalLoop=1;jettySize=auto;html=1;" edge="1" parent="1" source="vCfNFG107dNvgSjnfp0e-11" target="vCfNFG107dNvgSjnfp0e-17">
          <mxGeometry relative="1" as="geometry" />
        </mxCell>
        <mxCell id="vCfNFG107dNvgSjnfp0e-11" value="Replace the blank with the letter" style="rounded=1;whiteSpace=wrap;html=1;" vertex="1" parent="1">
          <mxGeometry x="245" y="600" width="120" height="60" as="geometry" />
        </mxCell>
        <mxCell id="vCfNFG107dNvgSjnfp0e-24" value="" style="edgeStyle=orthogonalEdgeStyle;rounded=0;orthogonalLoop=1;jettySize=auto;html=1;" edge="1" parent="1" source="vCfNFG107dNvgSjnfp0e-12" target="vCfNFG107dNvgSjnfp0e-23">
          <mxGeometry relative="1" as="geometry" />
        </mxCell>
        <mxCell id="vCfNFG107dNvgSjnfp0e-12" value="Lose a life" style="rounded=1;whiteSpace=wrap;html=1;" vertex="1" parent="1">
          <mxGeometry x="485" y="600" width="120" height="60" as="geometry" />
        </mxCell>
        <mxCell id="vCfNFG107dNvgSjnfp0e-13" value="" style="endArrow=classic;html=1;entryX=0.433;entryY=-0.017;entryDx=0;entryDy=0;entryPerimeter=0;" edge="1" parent="1" target="vCfNFG107dNvgSjnfp0e-11">
          <mxGeometry width="50" height="50" relative="1" as="geometry">
            <mxPoint x="340" y="520" as="sourcePoint" />
            <mxPoint x="280" y="520" as="targetPoint" />
            <Array as="points">
              <mxPoint x="297" y="520" />
            </Array>
          </mxGeometry>
        </mxCell>
        <mxCell id="vCfNFG107dNvgSjnfp0e-14" value="" style="endArrow=classic;html=1;entryX=0.5;entryY=0;entryDx=0;entryDy=0;" edge="1" parent="1" target="vCfNFG107dNvgSjnfp0e-12">
          <mxGeometry width="50" height="50" relative="1" as="geometry">
            <mxPoint x="510" y="520" as="sourcePoint" />
            <mxPoint x="560" y="470" as="targetPoint" />
            <Array as="points">
              <mxPoint x="545" y="520" />
            </Array>
          </mxGeometry>
        </mxCell>
        <mxCell id="vCfNFG107dNvgSjnfp0e-15" value="Yes" style="text;html=1;strokeColor=none;fillColor=none;align=center;verticalAlign=middle;whiteSpace=wrap;rounded=0;" vertex="1" parent="1">
          <mxGeometry x="250" y="560" width="40" height="20" as="geometry" />
        </mxCell>
        <mxCell id="vCfNFG107dNvgSjnfp0e-16" value="No" style="text;html=1;strokeColor=none;fillColor=none;align=center;verticalAlign=middle;whiteSpace=wrap;rounded=0;" vertex="1" parent="1">
          <mxGeometry x="550" y="560" width="40" height="20" as="geometry" />
        </mxCell>
        <mxCell id="vCfNFG107dNvgSjnfp0e-22" value="" style="edgeStyle=orthogonalEdgeStyle;rounded=0;orthogonalLoop=1;jettySize=auto;html=1;entryX=0;entryY=0.5;entryDx=0;entryDy=0;" edge="1" parent="1" source="vCfNFG107dNvgSjnfp0e-17" target="vCfNFG107dNvgSjnfp0e-7">
          <mxGeometry relative="1" as="geometry">
            <mxPoint x="200" y="150" as="targetPoint" />
            <Array as="points">
              <mxPoint x="200" y="740" />
              <mxPoint x="200" y="390" />
            </Array>
          </mxGeometry>
        </mxCell>
        <mxCell id="vCfNFG107dNvgSjnfp0e-31" style="edgeStyle=orthogonalEdgeStyle;rounded=0;orthogonalLoop=1;jettySize=auto;html=1;exitX=0.5;exitY=1;exitDx=0;exitDy=0;entryX=0.5;entryY=0;entryDx=0;entryDy=0;" edge="1" parent="1" source="vCfNFG107dNvgSjnfp0e-17" target="vCfNFG107dNvgSjnfp0e-30">
          <mxGeometry relative="1" as="geometry" />
        </mxCell>
        <mxCell id="vCfNFG107dNvgSjnfp0e-17" value="&lt;div&gt;&lt;br&gt;&lt;/div&gt;&lt;div&gt;Are all the blanks filled?&lt;/div&gt;" style="rhombus;whiteSpace=wrap;html=1;" vertex="1" parent="1">
          <mxGeometry x="240" y="700" width="130" height="80" as="geometry" />
        </mxCell>
        <mxCell id="vCfNFG107dNvgSjnfp0e-26" value="" style="edgeStyle=orthogonalEdgeStyle;rounded=0;orthogonalLoop=1;jettySize=auto;html=1;entryX=1;entryY=0.5;entryDx=0;entryDy=0;" edge="1" parent="1" source="vCfNFG107dNvgSjnfp0e-23" target="vCfNFG107dNvgSjnfp0e-7">
          <mxGeometry relative="1" as="geometry">
            <mxPoint x="680" y="380" as="targetPoint" />
            <Array as="points">
              <mxPoint x="650" y="740" />
              <mxPoint x="650" y="390" />
            </Array>
          </mxGeometry>
        </mxCell>
        <mxCell id="vCfNFG107dNvgSjnfp0e-32" style="edgeStyle=orthogonalEdgeStyle;rounded=0;orthogonalLoop=1;jettySize=auto;html=1;exitX=0.5;exitY=1;exitDx=0;exitDy=0;entryX=0.5;entryY=0;entryDx=0;entryDy=0;" edge="1" parent="1" source="vCfNFG107dNvgSjnfp0e-23" target="vCfNFG107dNvgSjnfp0e-30">
          <mxGeometry relative="1" as="geometry" />
        </mxCell>
        <mxCell id="vCfNFG107dNvgSjnfp0e-23" value="&lt;div&gt;&lt;br&gt;&lt;/div&gt;&lt;div&gt;Have they run out of lives?&lt;/div&gt;" style="rhombus;whiteSpace=wrap;html=1;" vertex="1" parent="1">
          <mxGeometry x="475" y="700" width="140" height="80" as="geometry" />
        </mxCell>
        <mxCell id="vCfNFG107dNvgSjnfp0e-27" value="No" style="text;html=1;strokeColor=none;fillColor=none;align=center;verticalAlign=middle;whiteSpace=wrap;rounded=0;" vertex="1" parent="1">
          <mxGeometry x="200" y="740" width="40" height="20" as="geometry" />
        </mxCell>
        <mxCell id="vCfNFG107dNvgSjnfp0e-29" value="No" style="text;html=1;strokeColor=none;fillColor=none;align=center;verticalAlign=middle;whiteSpace=wrap;rounded=0;" vertex="1" parent="1">
          <mxGeometry x="610" y="740" width="40" height="20" as="geometry" />
        </mxCell>
        <mxCell id="vCfNFG107dNvgSjnfp0e-30" value="GAME OVER" style="rounded=1;whiteSpace=wrap;html=1;" vertex="1" parent="1">
          <mxGeometry x="365" y="830" width="120" height="60" as="geometry" />
        </mxCell>
      </root>
    </mxGraphModel>
  </diagram>
</mxfile>
